<svg xmlns="http://www.w3.org/2000/svg" width="60" height="60" fill="none"><g fill="#fff" fill-rule="evenodd" clip-path="url(#delivery_svg__a)" clip-rule="evenodd"><path d="M29.175 53.4a69 69 0 0 0-1.625-9.25.725.725 0 0 0-.775-.7c-1.325 0-.725 2.5-.7 3.1a43 43 0 0 0 .475 7.225c.9 4.675.975 5.25 1.225 5.5s.825.65 1.325.2c.288-2.013.313-4.055.075-6.075M19.525 35a.825.825 0 0 0 0-1.65 17 17 0 0 0-8.9.95 1.024 1.024 0 0 0-.775.975c.875 2.225 9.475-.125 9.675-.275M16.45 15.25c0 1.35.675 1.325 1.65 0a44 44 0 0 1 0-6.475c0-1.35.2-5 .2-5.35 1.15-1.025 5.775-.6 8.4-.55.2.825 0-.625.15 5.25q-.045.4 0 .8c-1.425.35-5 0-6.425.225a.829.829 0 1 0 .325 1.625c1.9-.325 5.4.85 7.5 0 .9-.425.925-1.625.95-2.5.298-2.313.34-4.652.125-6.975A2.13 2.13 0 0 0 27.5.15a54 54 0 0 0-8.05 0c-4.65.825-3.5 3.45-3.525 4.4a62 62 0 0 0 .525 10.7"></path><path d="M54.325 27.7c-1.275-5.75-1.775-9.2-7.025-10.575-3.675-.975-26.85-3.6-37.5 2.075A9.4 9.4 0 0 0 5.4 25a29.6 29.6 0 0 0-1.175 8.4c.092 3.136.35 6.266.775 9.375a.726.726 0 0 0 1.2.4c.675-.5-1.8-14.5 2.7-19.85a9.5 9.5 0 0 1 12.5-1.9c4.15 2.5 4.775 8.975 5.175 13.875.275 3.475.575 5.3-2.275 5.775-.2 0-12.5 1.125-14.2.775-.825-.175-1.275-1.075-1.975-.375a.824.824 0 0 0 0 1.175 5 5 0 0 0 3.85 1.025c3.25 0 12.5-.375 12.65-.4 4.625-.575 4.7-3.975 4.475-8.15-.4-7.5-1.3-14.2-8.075-17.025h.8c15.65.6 16.6-.775 24.775 1.625 3.525 1.025 3.725 2.5 5 8.575.825 3.55 3.225 11.1-.525 12.225-2.75.825-20.325 1.05-20.975 1.075a.825.825 0 1 0 0 1.65h6.225a52.2 52.2 0 0 0-.9 14.55c0 .95 0 2.225.95 2.1a.725.725 0 0 0 .775-.55c.15-.325.925-6.8 1-8.175a31 31 0 0 0 0-4.05 27 27 0 0 1 0-3.875c2.7 0 5.525 0 9.25-.15 2.85-.15 5.925.2 7.5-2.5 1.95-3.75.3-8.875-.575-12.9"></path></g><defs><clipPath id="delivery_svg__a"><path fill="#fff" d="M0 0h60v60H0z"></path></clipPath></defs></svg>