<svg xmlns="http://www.w3.org/2000/svg" width="60" height="60" fill="none"><g fill="#fff" fill-rule="evenodd" clip-path="url(#development_svg__a)" clip-rule="evenodd"><path d="M6.875 27.019c0 1.3.475 2.5.625 3.7a.9.9 0 0 0 .9.95.95.95 0 0 0 .975-.9l.375-2.85a75 75 0 0 1 8.5-.725c0 1.025.25 2.05.4 3.075a.923.923 0 0 0 1.555.725c.186-.168.3-.4.32-.65.175-1.1.4-2.15.55-3.225h2.5c1.75 0 3.475 0 5.2.15v4l-1.775.15c-1.55.25-3.025.675-4.525.975a.85.85 0 0 0-.8.875.85.85 0 0 0 .875.775c1.775.15 3.475.4 5.3.4h1.1v.35a.95.95 0 0 0 .8 1.05.9.9 0 0 0 1.05-.8 7 7 0 0 0 0-.7c1.55 0 3.025-.35 4.55-.325a.926.926 0 0 0 1.05-.8.925.925 0 0 0-.8-1.05 25.4 25.4 0 0 0-4.375-.75q.264-1.239.375-2.5v-1.525h2.775l4.725.35c0 .825.225 1.675.4 2.5a.923.923 0 0 0 1.625.58.98.98 0 0 0 .25-.68c0-.75.175-1.475.3-2.225 1.25 0 2.5.125 3.775.275l5.325.4c0 .85.2 1.675.25 2.5a.975.975 0 0 0 .9 1 .926.926 0 0 0 .975-.9q.46-1.831.725-3.7a9 9 0 0 0 0-1.65 9 9 0 0 0 .225-1.7c-.9-4.85-.975-4.45-1.4-4.55a22 22 0 0 0-2.45-.45c-1.9-.325-3.875-.45-5.75-.7a99 99 0 0 0-10.8-.925 105 105 0 0 0-10.95.375c-2.925.35-5.8.5-8.625.9-7.275.975-6.375 1.6-7 5.625a9 9 0 0 0 0 2.6m42.025-5.95c.7 0 1.375.15 2.075.25 0 1.025 0 2.025-.125 3.075v2.175L46 25.844c-1.25-.2-2.5-.325-3.775-.525a1 1 0 0 0 0-.275v-1.55c0-.925-.2-1.8-.325-2.7h2.025c1.65.15 3.3.15 4.975.275m-8.9-.3c-.225.85-.5 1.675-.65 2.5q-.132.769-.15 1.55c-1.425-.2-2.825-.475-4.25-.6-1.05 0-2.1 0-3.15-.125 0-1.175-.225-2.35-.275-3.525h1.9c2.1.05 4.3.125 6.575.2m-17.175 0c2.275-.15 4.55 0 6.825 0a38 38 0 0 0-.6 3.35H27.4c-2.025 0-4.025.25-6.05.425a6 6 0 0 0 0-.65c0-1-.225-1.95-.35-2.9zm-8.65 0h5q-.43 1.342-.7 2.725v1.025c-2.775.35-5.525.875-8.25 1.5v-1.875A21 21 0 0 1 10 21.419a32.5 32.5 0 0 1 4.1-.5z"></path><path d="M57.5 50.822a8.6 8.6 0 0 1-4.15-2.925 7.8 7.8 0 0 1-1.375-4.575 29 29 0 0 0-1.15-7.225 6.03 6.03 0 0 0-3.9-3.8.95.95 0 1 0-.65 1.775 3.9 3.9 0 0 1 2.175 2.825c.263 1.257.364 2.542.3 3.825v2.825a10 10 0 0 0 2.65 6.075 10 10 0 0 0 5.725 2.8.824.824 0 1 0 .375-1.6M23.175 41.219a.9.9 0 0 0-.475 1.225 3.13 3.13 0 0 1-.6 3.175 15 15 0 0 1-2.275 2 19 19 0 0 0-2.5 2.5 19 19 0 0 0-1.8 3.275c-.65 1.625-1.075 3.3-1.6 5a.85.85 0 0 0 .45 1.075.8.8 0 0 0 1-.325c.7-1.325 1.35-2.5 2.05-3.775a19 19 0 0 1 2.3-3.3 22 22 0 0 1 2.175-2.15c.9-.85 1.683-1.817 2.325-2.875a5.15 5.15 0 0 0 .2-5.4.975.975 0 0 0-1.25-.425M40.95 50.169a19 19 0 0 0-2.5-2.5 15 15 0 0 1-2.275-2 3.12 3.12 0 0 1-.6-3.175.9.9 0 0 0-.475-1.225.975.975 0 0 0-1.25.475 5.15 5.15 0 0 0 .2 5.35 13.8 13.8 0 0 0 2.325 2.875q1.162 1 2.175 2.15a20.8 20.8 0 0 1 2.325 3.3c.675 1.225 1.325 2.5 2.025 3.775a.825.825 0 0 0 1.525-.625c-.525-1.775-.95-3.45-1.6-5a19 19 0 0 0-1.875-3.4M15.625 37.297c.225-.425.4-.875.625-1.275q.233-.61.6-1.15c.233-.327.542-.593.9-.775a.924.924 0 1 0-.25-1.825 4.73 4.73 0 0 0-3.725 2.1 5.8 5.8 0 0 0-1.025 2.125 14 14 0 0 0-.25 3.3.8.8 0 0 0 .625.975.825.825 0 0 0 .975-.625c.325-.85.9-1.825 1.525-2.85M44.575 34.372a4.77 4.77 0 0 0-3.75-2.1.93.93 0 1 0-.375 1.825 2.5 2.5 0 0 1 .925.775q.367.539.6 1.15c.2.4.4.85.625 1.275.575 1.075 1.2 2 1.6 2.85a.8.8 0 0 0 .975.625.825.825 0 0 0 .625-.975 13 13 0 0 0-.225-3.3 5.75 5.75 0 0 0-1-2.125M20.9 34.722a8 8 0 0 0-2.25 1.425q-.433.373-.75.85c-.216.315-.384.66-.5 1.025a9.4 9.4 0 0 0-.325 2.5.85.85 0 0 0 .525 1.05.85.85 0 0 0 1.05-.525c.5-.75 1.1-1.25 1.6-1.925s.45-.75.675-1.125q.473-.947 1.1-1.8a.95.95 0 0 0-1.125-1.525zM36 35.769a.95.95 0 0 0 .2 1.3q.627.854 1.1 1.8c.225.375.425.775.675 1.125s1.1 1.175 1.6 1.925a.824.824 0 1 0 1.55-.525 9.4 9.4 0 0 0-.3-2.5 5 5 0 0 0-.5-1.025 5 5 0 0 0-.75-.85 8.4 8.4 0 0 0-2.25-1.425.95.95 0 0 0-1.325.175"></path><path d="M59.85 30.397c0-1.75.175-3.675.15-5.575a44.7 44.7 0 0 0-1.1-10.15.78.78 0 0 0-.175-.65c-.5-1.575.425-.475-5.675-1.375l-6.4-.85a13 13 0 0 1 1.05-3.25 10 10 0 0 1 1.125-1.95 3.62 3.62 0 0 1 2.9-1.725.925.925 0 0 0 1.05-.8.925.925 0 0 0-.8-1.05 5.53 5.53 0 0 0-5.5 1.55q-.5.54-.875 1.175a6.3 6.3 0 0 0-.8 1.925 9.2 9.2 0 0 0 0 3.875l-1.45-.175a95 95 0 0 0-8-.5c-3.95 0-7.925.15-11.875.225-4.625.25-9.225.525-13.775 1.1-8.65 1.125-8.025 1.875-8.325 6.85-.15 2.35-.55 5.15-.775 7.825a73 73 0 0 0-.4 4.75c-.075 1.425 0 2.5 0 3.275.03 1.46.3 2.904.8 4.275a3.65 3.65 0 0 0 1.4 1.85 2.9 2.9 0 0 0 1.075.35h2.95c0 .65 0 1.35-.175 1.9a7.8 7.8 0 0 1-1.475 4.575 8.6 8.6 0 0 1-4.15 2.975.8.8 0 0 0-.6 1 .825.825 0 0 0 1 .6 10 10 0 0 0 5.725-2.925 10.15 10.15 0 0 0 2.65-6.175v-2.825a16.2 16.2 0 0 1 .275-3.825 3.88 3.88 0 0 1 2.2-2.825.95.95 0 0 0-.65-1.775 5.93 5.93 0 0 0-3.725 3.9 15 15 0 0 0-.85 3.825c-.45 0-1.325-.125-2.1-.2a1.6 1.6 0 0 1-.725-.2 2.08 2.08 0 0 1-.525-1.35 12.5 12.5 0 0 1 0-3.075c0-1.4.275-3.475.45-5.825.125-1.9.175-3.975.2-5.975a42 42 0 0 0-.5-7.8 61 61 0 0 1 6.55-.925c4.525-.325 9.075-.3 13.625-.25s9.175-.275 13.775-.25h5.85l9.6.725c.975 0 2.05 0 3.1.25q.663.092 1.3.3c0 .85.125 1.775.125 2.875 0 2.5-.35 5.75-.475 8.75-.2 3.575-.175 6.925 0 8.925l.35 3.975c-.244.25-.576.394-.925.4q-.895.14-1.8.15a.95.95 0 0 0 0 1.875c.97.134 1.955.134 2.925 0a2.8 2.8 0 0 0 1.55-.925c.296-.44.477-.947.525-1.475.081-1.29.081-2.585 0-3.875 0-1.375.2-3.3.325-5.5"></path><path d="m29.65 40.822-.9-.15a6 6 0 0 0-.925 0c-.55.125-2.875.8-2.825 1.65 0 .275 0 .75 2.825 1.375h1.65c2.875-.375 3.025-.625 3.025-1.175s0-1.075-2.85-1.7"></path></g><defs><clipPath id="development_svg__a"><path fill="#fff" d="M0 0h60v60H0z"></path></clipPath></defs></svg>