<svg xmlns="http://www.w3.org/2000/svg" width="24" height="24" fill="none" class="-mt-1.5"><g fill="#fff" fill-rule="evenodd" clip-path="url(#email_svg__a)" clip-rule="evenodd"><path d="M22.74 9.33c-.48-.4-3-2.33-4.88-3.66a.304.304 0 0 0-.36.49c.84.64 1.66 1.29 2.38 1.87 2.7 2.16 2.47 1.86 2.62 2.91a34 34 0 0 0-5 2c-1.79.88-3 1.67-4.26 2.36a5.8 5.8 0 0 0-2.11-.87 4.5 4.5 0 0 0-1.83.76c-.56-.44-1.3-1-2.11-1.64A35 35 0 0 0 2 10.5c.1-.73.22-.61.14-.67C3 9 4.73 7.5 6.52 6.13a.34.34 0 0 0-.4-.55c-1.43 1-3.56 2.51-4.77 3.55C.31 10 .29 20.08.64 22.46a.3.3 0 0 0 .33.26l.69-.37a48.7 48.7 0 0 1 8.07-6.1c1.37-.8 1.27-.83 2.52-.15a107 107 0 0 1 9.36 6.45c0 .29.29.24-2.11.29s-16.43.09-17.79 0a.35.35 0 0 0 0 .69c1.68.1 19.65.73 20.54.25a.7.7 0 0 0 .29-.3c.61-1.17 1.86-12.77.2-14.15M1.22 21.81c0-2.47.67-10.44.68-10.52a53 53 0 0 0 6.68 4.36 46.6 46.6 0 0 0-7.36 6.16m20.52.05a86 86 0 0 0-7.83-6.1c5.23-2 7.23-3.61 8.66-4.15a53.7 53.7 0 0 1-.83 10.25"></path><path d="M6.59 8.33c.35 1.47 3.94 4.84 5.65 5S17 8.81 16.85 7.86 15.52 7 14.63 6.79h-.37A57 57 0 0 0 12.71.23a.34.34 0 0 0-.64.23c.7 2.07 1.26 6.47 1.39 6.76.21.46.73.43 1 .49.39.1 1.06.14 1.36.24-.06.08-.07.3-.16.47-.66 1.31-2.66 3.82-3.32 3.76-1.23-.11-4.34-3.13-4.62-3.93q.131-.084.28-.13c2.25-.57 2.28-.06 2.61-2 0-.08.83-5.73.81-5.81-.11-.4-.49-.3-.62-.06s-.21 1.08-.65 3.75c-.5 3.1-.6 2.63-.66 2.89-1.36.27-3.21.16-2.9 1.44"></path></g><defs><clipPath id="email_svg__a"><path fill="#fff" d="M0 0h24v24H0z"></path></clipPath></defs></svg>