<svg xmlns="http://www.w3.org/2000/svg" width="24" height="24" fill="none" class="-mt-1.5"><g clip-path="url(#resume_svg__a)"><mask id="resume_svg__b" width="24" height="24" x="0" y="0" maskUnits="userSpaceOnUse" style="mask-type:luminance"><path fill="#fff" d="M24 0H0v24h24z"></path></mask><g fill="#fff" fill-rule="evenodd" clip-rule="evenodd" mask="url(#resume_svg__b)"><path d="M14 22.49c-1.81.05-4.05-.12-6.21-.23-1.86-.09-5 0-6.68-.31a.31.31 0 0 0-.13.6c1.495.37 3.016.625 4.55.76 2.832.203 5.675.162 8.5-.12a.35.35 0 0 0-.03-.7M.93 20.82c0-1.88.25-16.61.22-17.91 0-1.12.25-1.27 1.1-1.36 4.628-.3 9.27-.32 13.9-.06 1.39.12 1.5.57 1.81 4.07s.06 3.86.53 3.85a.31.31 0 0 0 .3-.32c0-1.76-.11-4.24-.3-6-.17-1.51-.62-2.31-2.24-2.51A83 83 0 0 0 2.12.39C.62.56-.06 1.26 0 3c0 .91.15 15.76.23 17.89a.352.352 0 1 0 .7-.07"></path><path d="M4.08 6.26c.8 0 4.1.11 5.43.1.91 0 4.79-.17 5.12-.11a.352.352 0 1 0 .18-.68 48 48 0 0 0-5.31-.39 32.3 32.3 0 0 0-5.5.48.303.303 0 1 0 .08.6M14.74 9.82a48.7 48.7 0 0 0-10.59 0 .31.31 0 0 0 0 .61c1 .09 4.06.27 5.4.28 1.08 0 4.52-.15 5.16-.2a.35.35 0 0 0 .31-.6.35.35 0 0 0-.28-.09M4.06 14.44c1 .08 4.09.26 5.4.27 1 0 4.53-.15 5.16-.19a.35.35 0 0 0 0-.7 48.6 48.6 0 0 0-10.59 0 .31.31 0 0 0 .03.62M8.28 20.14a.3.3 0 0 0-.25.35c0 .3 1.31.5 1.62.51.15 0 1.65 0 1.72-.39s-1.43-.76-1.66-.78a3.2 3.2 0 0 0-1.43.31M24 21.33a23.9 23.9 0 0 0-2.32-9.61c-1.12-2.27-4.36-2.44-3.68 1.76.09.53.1 2.78.21 3.35a7.6 7.6 0 0 0-1.31-.65c-1.93-.7-3.07.59-1.93 2.56a17 17 0 0 0 2.62 3.1c0 1.19 0 .44.06 1.64a.31.31 0 0 0 .61 0q-.024-.742.03-1.48a1.2 1.2 0 0 0-.1-.61A19 19 0 0 1 16 18.76c-1.08-1.7-.82-2.61 2.21-.55.3.21.55.41.89.28s.39-.54.33-1c-.11-.88-.4-4.2-.4-4.85 0-.32 0-1.28.35-1.33a1.43 1.43 0 0 1 1.26.9q.615 1.128 1.07 2.33c1 2.65 1.81 7.51 1.48 8.86a.35.35 0 1 0 .67.17c.148-.737.195-1.49.14-2.24"></path></g></g><defs><clipPath id="resume_svg__a"><path fill="#fff" d="M0 0h24v24H0z"></path></clipPath></defs></svg>