<svg xmlns="http://www.w3.org/2000/svg" width="17" height="16" fill="none"><path fill="#E01E5A" d="M3.862 10.11c0 .926-.756 1.681-1.681 1.681S.5 11.036.5 10.111c0-.926.756-1.681 1.68-1.681h1.682zM4.707 10.11c0-.925.756-1.68 1.68-1.68.926 0 1.682.755 1.682 1.68v4.209c0 .925-.756 1.68-1.681 1.68s-1.681-.755-1.681-1.68z"></path><path fill="#36C5F0" d="M6.388 3.362c-.925 0-1.681-.756-1.681-1.681S5.463 0 6.387 0C7.314 0 8.07.756 8.07 1.68v1.682zM6.39 4.209c.924 0 1.68.756 1.68 1.68 0 .926-.756 1.681-1.68 1.681H2.18C1.257 7.57.5 6.816.5 5.89s.756-1.681 1.68-1.681z"></path><path fill="#2EB67D" d="M13.137 5.89c0-.925.755-1.681 1.68-1.681s1.681.756 1.681 1.68c0 .926-.756 1.681-1.68 1.681h-1.681zM12.291 5.89c0 .924-.755 1.68-1.68 1.68-.926 0-1.681-.756-1.681-1.68V1.68C8.93.757 9.685 0 10.61 0c.926 0 1.681.756 1.681 1.68z"></path><path fill="#ECB22E" d="M10.61 12.639c.926 0 1.681.755 1.681 1.68S11.536 16 10.611 16c-.926 0-1.681-.755-1.681-1.68v-1.681zM10.61 11.791c-.925 0-1.68-.755-1.68-1.68 0-.926.755-1.681 1.68-1.681h4.209c.925 0 1.68.755 1.68 1.68 0 .926-.755 1.681-1.68 1.681z"></path></svg>