<svg xmlns="http://www.w3.org/2000/svg" width="60" height="60" fill="none"><g fill="#fff" fill-rule="evenodd" clip-path="url(#specifications_svg__a)" clip-rule="evenodd"><path d="M22.775 52.969a9.4 9.4 0 0 0-1.675-1.775 11.6 11.6 0 0 0-3.025-1.575q.342-.214.65-.475a6.25 6.25 0 0 0 1.825-7.775 6.65 6.65 0 0 0-7.35-3.875 9.1 9.1 0 0 0-3.625 1.725 6.85 6.85 0 0 0-2.5 3.4 6.75 6.75 0 0 0 1.1 6.05c.371.418.8.78 1.275 1.075a8.7 8.7 0 0 0-1.65.625 8.7 8.7 0 0 0-2.325 2.075 9.3 9.3 0 0 0-1.35 2.675 9.07 9.07 0 0 0 .175 5.875.8.8 0 0 0 .95.525.775.775 0 0 0 .525-.95 7.7 7.7 0 0 1 .525-3.625c.326-.885.763-1.725 1.3-2.5a7.2 7.2 0 0 1 1.675-1.975 6.3 6.3 0 0 1 1.4-.875 19 19 0 0 1 2.675-.9.87.87 0 0 0 .575-.45.75.75 0 0 0 .55-.85.775.775 0 0 0-.9-.6A3.75 3.75 0 0 1 10 47.519a4.35 4.35 0 0 1-.25-4 4.7 4.7 0 0 1 1.575-1.875 6.9 6.9 0 0 1 2.5-1.15 4.025 4.025 0 0 1 4.475 2.15 4.125 4.125 0 0 1-.8 5.125 3.4 3.4 0 0 1-.725.5l-.9.325c-.425 0-.875.975-.9 1a.875.875 0 0 0 .6 1.075 10.3 10.3 0 0 1 3.65 2.5c.425.43.81.9 1.15 1.4q.521.74.925 1.55a8 8 0 0 1 .9 4.25.757.757 0 0 0 .575.9.755.755 0 0 0 .9-.575 8.93 8.93 0 0 0 .225-5.575 7.5 7.5 0 0 0-1.125-2.15M47.675 52.969a8.8 8.8 0 0 0-1.7-1.775 11.4 11.4 0 0 0-3-1.575c.2-.125.45-.225.65-.375a6.275 6.275 0 0 0 1.825-7.775 6.675 6.675 0 0 0-7.35-3.875 8.95 8.95 0 0 0-3.625 1.725 6.9 6.9 0 0 0-2.5 3.4 6.75 6.75 0 0 0 1.125 6.05c.362.417.783.78 1.25 1.075-.567.16-1.12.37-1.65.625a9 9 0 0 0-2.3 2.075 8.2 8.2 0 0 0-1.35 2.675 8.9 8.9 0 0 0 .175 5.875.775.775 0 0 0 .95.525.775.775 0 0 0 .525-.95 7.5 7.5 0 0 1 .525-3.625c.317-.884.745-1.724 1.275-2.5a7.7 7.7 0 0 1 1.7-1.975c.418-.363.89-.658 1.4-.875q1.291-.551 2.65-.9a.82.82 0 0 0 .575-.45.725.725 0 0 0 .55-.85.75.75 0 0 0-.875-.6 3.75 3.75 0 0 1-3.75-1.475 4.35 4.35 0 0 1-.25-4 4.5 4.5 0 0 1 1.65-1.925 6.75 6.75 0 0 1 2.5-1.15 4.025 4.025 0 0 1 4.475 2.15 4.1 4.1 0 0 1-.625 5.275q-.324.288-.7.5c-.7.325-1.45.25-1.8 1.325a.875.875 0 0 0 .6 1.075 10.5 10.5 0 0 1 3.65 2.5q.627.658 1.15 1.4.51.74.9 1.55a8 8 0 0 1 .925 4.25.724.724 0 0 0 .575.9.775.775 0 0 0 .9-.575c.66-1.79.73-3.743.2-5.575a7.5 7.5 0 0 0-1.225-2.15M16.55 12.919c-.975.45-1.9.85-2.8 1.375q-.931.552-1.8 1.2-.525.396-1 .85a1.88 1.88 0 0 0-.525 1.05 1.98 1.98 0 0 0 .625 1.75c.71.52 1.472.965 2.275 1.325l1.875.7a.854.854 0 1 0 .525-1.625L14.5 18.519s-.55-.375-.95-.675l.35-.175 3.6-3.525a.775.775 0 0 0-.875-1.25zM24.1 8.469c-.85 1.45-1.8 2.8-2.5 4.275-.35.625-.675 1.3-.975 1.975s-.65 1.7-.9 2.5c-.55 2-.9 4.025-1.5 6.025a.875.875 0 1 0 1.6.65 51 51 0 0 0 1.9-4.125c.575-1.4 1.025-2.75 1.6-4.1L25.5 9.144a.75.75 0 0 0-.4-1 .75.75 0 0 0-1 .325M30.7 19.519a4.5 4.5 0 0 0 .9-.775c.249-.27.459-.573.625-.9a1.53 1.53 0 0 0-.175-1.5 6.3 6.3 0 0 0-1.525-1.4 26.6 26.6 0 0 0-3.8-1.5.775.775 0 0 0-1.05.275.75.75 0 0 0 .275 1.05l2.175 1.75.925.775-.95 1-1.775 1.425a.85.85 0 0 0-.25 1.2.824.824 0 0 0 1.175.25l2.05-.9a6.8 6.8 0 0 0 1.4-.75"></path><path d="M36.525 25.494a18.35 18.35 0 0 0 2.675-12.9 13.3 13.3 0 0 0-6.5-8.65 17.05 17.05 0 0 0-10.575-2.175 27.2 27.2 0 0 0-12.375 4.2 15.18 15.18 0 0 0-5.45 7.15 12.8 12.8 0 0 0 .25 9.575 12.98 12.98 0 0 0 6.6 6.75c.856.368 1.755.628 2.675.775 1.316.202 2.644.32 3.975.35q1.137.057 2.275 0h.85c.175.55.375 1.075.5 1.625.275 1.175.5 2.35.675 3.55l.4 2.025.35 1.2a.42.42 0 0 0 0 .25 1.35 1.35 0 0 0 1.9.525c.525-.288.97-.7 1.3-1.2.47-.795.863-1.632 1.175-2.5l.925-2.9 1.025-3.075a9.55 9.55 0 0 0 7.35-4.575M26.1 32.344l-1.225 2.5-.175.35c-.35-1-.7-1.975-1.125-2.95s-.775-1.7-1.225-2.5 0 0 0-.15 0 0-.15 0a.7.7 0 0 0-.775-.175A5.9 5.9 0 0 1 20 29.144c-.725 0-1.45-.125-2.175-.175a32 32 0 0 1-3.725-.45 10.2 10.2 0 0 1-2.225-.75 10.83 10.83 0 0 1-5.2-5.925 10.4 10.4 0 0 1 .075-7.7 13.05 13.05 0 0 1 6.275-6.825A28.5 28.5 0 0 1 22.5 4.644c3.053-.4 6.154.186 8.85 1.675a10.73 10.73 0 0 1 5.5 6.8 16.2 16.2 0 0 1-1.075 9.575A8.45 8.45 0 0 1 29 28.344a.875.875 0 0 0-1.125.5z"></path><path d="M56.125 17.594a14 14 0 0 0-2.5-5.175A10.8 10.8 0 0 0 43.45 8.244a.75.75 0 0 0-.7.9.726.726 0 0 0 .825.7 9.05 9.05 0 0 1 7.875 4.3 13.7 13.7 0 0 1 1.825 4.25c.416 1.505.526 3.077.325 4.625a10 10 0 0 1-1.725 4.6 6.98 6.98 0 0 1-3.925 2.8.875.875 0 0 0-.65 1.025s0 .15.15.225a.875.875 0 0 0-1.1.35l-1.325 1.975-.225.25a7.8 7.8 0 0 0-.3-1.625 3.23 3.23 0 0 0-1.7-2.2 2.2 2.2 0 0 0-1.2-.15c-.575 0-1.35.45-1.725.5q-.98.18-1.975.25l-3.125.15a.75.75 0 0 0-.8.725.8.8 0 0 0 .725.8l5.325.625c2.075 0 1.125-2.325 2.5 3.925 0 .25 1.1 1.525 2.2.55.375-.35 1.3-1.35 1.35-1.425l.775-1.225 1.1-2.275a.8.8 0 0 0 0-.85 1 1 0 0 0 .525 0 8.88 8.88 0 0 0 5.275-3.125 12.5 12.5 0 0 0 2.7-5.55 13.9 13.9 0 0 0-.325-5.75"></path></g><defs><clipPath id="specifications_svg__a"><path fill="#fff" d="M0 0h60v60H0z"></path></clipPath></defs></svg>