<svg xmlns="http://www.w3.org/2000/svg" width="17" height="17" fill="none"><path fill="#FBBF24" d="M16.897 6.29a.88.88 0 0 0-.294-.416.9.9 0 0 0-.481-.188l-4.89-.432L9.3.845a.9.9 0 0 0-.332-.387.92.92 0 0 0-.993 0 .9.9 0 0 0-.331.388L5.709 5.254l-4.89.432a.9.9 0 0 0-.48.189.88.88 0 0 0-.295.415.855.855 0 0 0 .264.931l3.696 3.158-1.09 4.677a.86.86 0 0 0 .035.504.9.9 0 0 0 .315.402.91.91 0 0 0 .989.042l4.218-2.456 4.216 2.456a.92.92 0 0 0 .99-.042c.143-.101.252-.24.315-.402a.86.86 0 0 0 .035-.504l-1.09-4.677 3.696-3.157a.856.856 0 0 0 .264-.933"></path></svg>