<svg xmlns="http://www.w3.org/2000/svg" width="18" height="18" fill="none"><g clip-path="url(#youtrack_svg__a)"><path fill="url(#youtrack_svg__b)" d="m17.203 12.214-3.369-3.24s2.52-2.674 3.189-3.343c.206-.205.386-.411.514-.668.926-1.569.386-3.574-1.183-4.5a3.31 3.31 0 0 0-3.625.206c-.18.128-.335.257-.489.411-.077.103-3.574 3.291-6.609 6.069l5.683 3.6L5.35 17.46c-.36.257-.72.411-1.106.489.077 0 .128 0 .206-.026 1.182-.18 11.288-1.877 11.777-1.98a2.17 2.17 0 0 0 1.465-1.003c.566-.926.309-2.083-.488-2.726"></path><path fill="url(#youtrack_svg__c)" d="M11.803 7.843a2.6 2.6 0 0 0-.977-1.672C10.286 5.76 6.12 1.44 5.657.951c-.72-.694-1.748-1.08-2.803-.9A3.29 3.29 0 0 0 .077 3.806c.129.9.643 1.671 1.312 2.16.668.514 5.914 4.114 6.248 4.371.54.412 1.26.643 1.98.514 1.414-.257 2.417-1.594 2.186-3.008"></path><path fill="url(#youtrack_svg__d)" d="M5.914 17.434c.026 0 5.992-6.711 5.992-6.711L5.889 6.917c-2.135 1.954-4.115 3.729-4.578 4.166a4 4 0 0 0-.771.951 3.96 3.96 0 0 0 1.44 5.426c.771.437 2.52.977 3.934-.026"></path><path fill="#000" d="M14.554 3.446H3.446v11.108h11.108z"></path><path fill="#fff" d="M8.64 12.471H4.474v.695H8.64zM6.12 7.689 4.371 4.91h1.183l1.08 1.826 1.132-1.826h1.157L7.149 7.663v1.851H6.12zM10.697 5.837H9.283v-.926h3.831v.926H11.7v3.677h-1.003z"></path></g><defs><linearGradient id="youtrack_svg__b" x1="1.821" x2="16.484" y1="14.079" y2="7.395" gradientUnits="userSpaceOnUse"><stop stop-color="#905CFB"></stop><stop offset="0.165" stop-color="#6677F8"></stop><stop offset="0.378" stop-color="#3596F5"></stop><stop offset="0.54" stop-color="#17A9F3"></stop><stop offset="0.632" stop-color="#0CB0F2"></stop></linearGradient><linearGradient id="youtrack_svg__c" x1="7.794" x2="0.275" y1="7.234" y2="0.592" gradientUnits="userSpaceOnUse"><stop stop-color="#905CFB"></stop><stop offset="0.072" stop-color="#A554E6"></stop><stop offset="0.252" stop-color="#D641B5"></stop><stop offset="0.39" stop-color="#F43597"></stop><stop offset="0.468" stop-color="#FF318C"></stop></linearGradient><linearGradient id="youtrack_svg__d" x1="1.281" x2="19.034" y1="15.091" y2="3.904" gradientUnits="userSpaceOnUse"><stop stop-color="#905CFB"></stop><stop offset="0.165" stop-color="#6677F8"></stop><stop offset="0.378" stop-color="#3596F5"></stop><stop offset="0.54" stop-color="#17A9F3"></stop><stop offset="0.632" stop-color="#0CB0F2"></stop></linearGradient><clipPath id="youtrack_svg__a"><path fill="#fff" d="M0 0h18v18H0z"></path></clipPath></defs></svg>